<?xml version="1.0" encoding="UTF-8"?>
<svg id="Layer_1" data-name="Layer 1" xmlns="http://www.w3.org/2000/svg" viewBox="0 0 360 76.03">
  <defs>
    <style>
      .cls-1 {
        fill-rule: evenodd;
      }

      .cls-1, .cls-2 {
        fill: #cf2545;
      }

      .cls-3 {
        fill: #004b75;
      }
    </style>
  </defs>
  <path class="cls-3" d="M338.59,60.64c-1.61,0-2.82-.45-3.61-1.35-.79-.9-1.11-2.16-.95-3.77l2.56-25.94h-8.65c-1.36,0-2.36-.36-3-1.07-.65-.72-.9-1.73-.77-3.06.13-1.36.59-2.39,1.38-3.08.79-.7,1.86-1.05,3.21-1.05h27.43c1.36,0,2.36.35,3.01,1.05.65.7.9,1.72.77,3.08-.13,1.32-.59,2.34-1.38,3.06-.79.72-1.86,1.07-3.22,1.07h-8.65l-2.56,25.94c-.16,1.62-.71,2.87-1.64,3.77-.93.9-2.24,1.35-3.93,1.35M296.99,60.14c-1.73,0-3-.45-3.8-1.35-.81-.9-1.13-2.19-.97-3.88l2.8-28.36c.17-1.69.74-2.98,1.73-3.88.99-.9,2.35-1.35,4.07-1.35h18.67c1.32,0,2.28.33,2.88.99.6.66.83,1.62.71,2.86-.13,1.28-.55,2.27-1.28,2.95-.73.68-1.75,1.02-3.07,1.02h-14.26l-.73,7.38h13.05c1.28,0,2.23.33,2.85.99.62.66.86,1.63.73,2.92-.13,1.28-.56,2.26-1.31,2.92-.74.66-1.76.99-3.04.99h-13.05l-.79,7.99h14.26c1.32,0,2.28.34,2.87,1.02.59.68.83,1.64.71,2.89-.13,1.28-.55,2.26-1.28,2.92-.73.66-1.75.99-3.07.99h-18.67ZM268.05,39h6.77c1.91,0,3.42-.41,4.53-1.24,1.11-.83,1.74-2.06,1.91-3.72.17-1.69-.23-2.94-1.17-3.74-.95-.81-2.38-1.21-4.29-1.21h-6.77l-.98,9.91ZM260.84,60.64c-1.61,0-2.82-.45-3.61-1.35-.79-.9-1.11-2.16-.95-3.77l2.87-29.08c.16-1.65.74-2.92,1.72-3.8.99-.88,2.29-1.32,3.9-1.32h13.55c4.4,0,7.7,1.13,9.88,3.39,2.18,2.26,3.08,5.37,2.68,9.33-.39,3.97-1.9,7.08-4.53,9.33-2.63,2.26-6.15,3.39-10.55,3.39h-8.54l-.86,8.76c-.16,1.62-.71,2.87-1.64,3.77-.93.9-2.24,1.35-3.93,1.35Z"/>
  <path class="cls-2" d="M104.71,23.42c-.59-.1-3.58-1.71-1.44-3.05,1.71-.86,2.25,1.69,1.44,3.05M96.93,22.62c-.38,4.11,2.14,7.11,6.83,9.13-1.16,6.85-5.36,20.69-14.22,20.69-2.58,0-4.17-1.67-3.86-5.01l2.22-24.32c.02-.26-.05-.49-.23-.68-.17-.19-.4-.29-.65-.29h-6.93c-.46,0-.84.35-.88.8l-2.21,24.2c-2.53,3.27-5.76,5.09-10.36,5.09-8.43,0-8.23-5.99-7.92-9.34l1.81-19.79c.02-.26-.05-.49-.23-.68-.17-.19-.4-.29-.65-.29h-6.93c-.46,0-.84.35-.88.8l-2.12,23.23c-.06.71-.09,1.39-.08,2.04-2.58,2.77-5.22,4.23-7.67,4.23-2.58,0-4.17-1.67-3.86-5.01l2.23-24.39c.02-.26-.05-.49-.23-.68-.17-.19-.4-.29-.65-.29h-6.89c-.47,0-.86.37-.88.85l-.14,3.4c-2.7-3.2-7-4.95-11.74-4.95C10.73,21.36,1.3,27.77.11,40.8c-1.03,11.29,5.54,19.37,15.58,19.37,5.29,0,10.53-2.44,13.94-6.13,1.3,4.11,5.29,6.13,10.1,6.13,4.4,0,8.82-1.69,12.3-4.63,2.54,3.2,6.83,4.63,11.6,4.63,5.64,0,10.56-2.02,13.75-5.64,1.54,3.76,5.34,5.64,9.93,5.64,13.89,0,21.93-13.96,24.28-26.33,2.54.42,5.3.7,8.36.77l-1.36,14.91c-.66,7.18,4.18,10.66,10.59,10.66,5.88,0,11.71-3.01,15.38-7.99.27-.37.22-.87-.11-1.18l-3.69-3.38c-.18-.17-.4-.25-.65-.23s-.46.12-.62.31c-2.66,3.1-5.47,4.73-8.13,4.73s-4.17-1.67-3.86-5.01l1.74-19.03c.06-.62-.56-1.45-1.35-1.45-5.4,0-11.12-.36-15.62-1.11-.38-6.48-4.05-9.75-8.37-9.75-3.55,0-6.55,2.3-6.94,6.55ZM27.38,6.13l-9.95,7.7c-.67.52-.8,1.48-.29,2.16l1.36,1.8c.48.64,1.35.8,2.04.39l10.79-6.53c.39-.23.63-.58.72-1.02.09-.44,0-.86-.27-1.22l-2.2-2.97c-.26-.35-.6-.55-1.03-.61-.43-.06-.82.04-1.16.31ZM18.71,52.22c-6.48,0-10.19-4.39-9.54-11.49.7-7.66,5.99-11.42,11.49-11.42,12.1,0,9.53,9.27,8.81,17.21-2.27,3.48-6.38,5.71-10.76,5.71Z"/>
  <path class="cls-2" d="M199.16,26.21c-.11,6.41-2.8,12.85-6.79,17.29-2.4,2.67-5.31,4.64-8.47,5.48h0c-1.92.54-3.83.58-5.64.24-.44-.08-.88-.18-1.33-.31h0c-4.4-1.29-8.89-5.24-10.58-9.56h0s0,0,0,0c-1.51-3.86-.55-7.42,1.51-9.7,2.45-2.73,6.38-3.51,8.78-1.34,3.37,3.06.74,8.97-3.47,13.64-.36.4-.72.78-1.09,1.15.93.89,1.98,1.68,3.12,2.3,1.27.7,2.65,1.18,4.07,1.37.31-.32.62-.65.91-.98,7.06-7.85,9.8-18.21,2.5-24.84-6.07-5.51-15.02-4.85-21.33,2.17-7.61,8.46-6.58,20.83,3.53,30.02,11.77,10.69,25.11,7.13,33.82-2.56,5.55-6.17,9.12-14.71,8.91-23.27-.01-.43-.32-.78-.74-.85l-6.69-1.1c-.26-.04-.51.02-.71.19-.2.17-.31.4-.32.66"/>
  <path class="cls-1" d="M160.68,48.45c.73-.01,1.49-.08,2.27-.21l6.82,6.23c-.68.36-1.35.69-2.01.99-.97-.68-1.93-1.45-2.88-2.31-1.64-1.49-3.04-3.06-4.21-4.69M143.39,26.2c.2,8.99,5.08,19.84,13.98,21.9.2.33.4.65.62.97,1.38,2.09,3.1,4.1,5.17,5.97.58.53,1.16,1.02,1.75,1.48-17.73,5.49-30.23-13.22-29.96-29.22,0-.43.32-.79.74-.86l6.68-1.1c.26-.04.5.02.71.19.2.17.31.4.32.66Z"/>
  <path class="cls-3" d="M197.93,8.17c-6.03-7.93-12.03-9.87-19.2-6.53-.38.18-.58.58-.49.99l1.19,5.57c.05.25.2.45.42.58.22.13.47.16.71.08,4.42-1.42,7.94-1.05,12.84,3.75.35.34.91.33,1.25-.01l3.21-3.27c.31-.32.34-.8.07-1.16"/>
  <path class="cls-3" d="M166.92,5.99c.43-3.26-1.68-5.85-4.95-5.98-3.34-.13-6.04,2.27-6.47,5.53-.44,3.33,1.6,5.92,4.94,6.05,3.27.13,6.04-2.27,6.48-5.6"/>
  <path class="cls-3" d="M157.25,70.76c8.26,6.66,15.08,6.96,21.98,1.22.31-.26.41-.69.23-1.06l-2.65-5.57c-.11-.24-.3-.4-.55-.47-.25-.07-.49-.04-.72.1-4.46,2.76-8.26,3.48-14.67-.2-.42-.24-.96-.1-1.21.32l-2.63,4.53c-.22.38-.13.86.21,1.13"/>
  <path class="cls-2" d="M223.06,52.22c-6.48,0-10-4.39-9.05-11.49,1.02-7.66,6.47-11.42,11.97-11.42,12.1,0,8.96,10.61,8.08,17.21-2.42,3.48-6.61,5.71-11,5.71M253.44,47.69c-2.85,3.11-4.53,4.74-7.13,4.74s-3.93-1.66-3.65-5.02l2.06-24.39c.02-.26-.03-.49-.2-.68-.17-.19-.38-.29-.64-.29h-6.89c-.47,0-1.04.39-.92.85l.91,3.4c-2.57-3.2-6.79-4.95-11.53-4.95-9.06,0-18.76,6.41-20.5,19.44-1.51,11.29,4.73,19.37,14.76,19.37,5.29,0,10.64-2.44,14.19-6.13,1.12,4.11,5.03,6.13,9.84,6.13,5.88,0,10.7-3.01,14.58-7.99.29-.37.26-.87-.07-1.18l-3.55-3.38c-.17-.17-.39-.24-.64-.23-.25.01-.46.12-.63.3Z"/>
</svg>