<?xml version="1.0" encoding="UTF-8"?>
<svg id="Layer_1" data-name="Layer 1" xmlns="http://www.w3.org/2000/svg" viewBox="0 0 288.96 302.23">
  <defs>
    <style>
      .cls-1 {
        fill-rule: evenodd;
      }

      .cls-1, .cls-2 {
        fill: #cf2545;
      }

      .cls-3 {
        fill: #004b75;
      }
    </style>
  </defs>
  <path class="cls-2" d="M255.29,104.19c-.44,25.46-11.11,51.09-26.98,68.74-9.55,10.62-21.12,18.44-33.65,21.76h0c-7.65,2.14-15.22,2.3-22.43.96-1.75-.32-3.52-.73-5.28-1.25h.02c-17.48-5.13-35.34-20.84-42.06-38l-.02-.04h0c-5.99-15.33-2.17-29.48,5.99-38.56,9.75-10.85,25.38-13.94,34.88-5.31,13.4,12.17,2.93,35.64-13.78,54.23-1.42,1.58-2.86,3.11-4.32,4.57,3.7,3.54,7.87,6.67,12.38,9.15,5.05,2.77,10.51,4.7,16.19,5.46,1.24-1.27,2.44-2.57,3.63-3.89,28.06-31.21,38.96-72.38,9.95-98.73-24.13-21.92-59.72-19.26-84.79,8.63-30.25,33.65-26.17,82.79,14.04,119.31,46.79,42.5,99.82,28.33,134.45-10.18,22.06-24.53,36.26-58.49,35.41-92.49-.04-1.7-1.26-3.1-2.95-3.38l-26.6-4.39c-1.04-.17-2.01.09-2.83.77-.81.68-1.24,1.58-1.26,2.64"/>
  <path class="cls-1" d="M102.34,192.58c2.92-.05,5.92-.32,9.01-.82l27.13,24.74c-2.69,1.45-5.35,2.75-7.98,3.92-3.84-2.71-7.66-5.77-11.43-9.19-6.52-5.92-12.09-12.18-16.72-18.64M33.61,104.16c.79,35.74,20.18,78.85,55.56,87.04.78,1.3,1.6,2.59,2.45,3.87,5.49,8.3,12.34,16.28,20.54,23.74,2.3,2.09,4.62,4.05,6.96,5.9C48.65,246.51-1.05,172.16.02,108.57c.03-1.71,1.25-3.13,2.95-3.41l26.56-4.39c1.04-.17,2,.09,2.82.76.81.67,1.25,1.57,1.27,2.63Z"/>
  <path class="cls-3" d="M250.39,32.48C226.4.97,202.56-6.75,174.05,6.54c-1.5.7-2.3,2.3-1.95,3.92l4.72,22.14c.22,1.01.78,1.79,1.67,2.31.89.51,1.86.62,2.84.3,17.58-5.62,31.55-4.16,51.05,14.9,1.39,1.35,3.61,1.33,4.97-.05l12.74-12.98c1.24-1.25,1.36-3.19.29-4.6"/>
  <path class="cls-3" d="M127.15,23.81C128.86,10.85,120.48.54,107.48.02c-13.28-.53-24,9.01-25.71,21.97-1.75,13.23,6.35,23.53,19.63,24.06,13,.52,24-9.02,25.74-22.25"/>
  <path class="cls-3" d="M88.7,281.25c32.85,26.49,59.94,27.66,87.36,4.84,1.25-1.04,1.63-2.74.93-4.21l-10.53-22.13c-.45-.94-1.19-1.57-2.19-1.86-.99-.29-1.96-.16-2.85.38-17.73,10.99-32.82,13.85-58.33-.8-1.68-.96-3.83-.38-4.79,1.29l-10.44,18c-.88,1.51-.53,3.41.83,4.5"/>
</svg>